<?xml version="1.0" standalone="no"?><!DOCTYPE svg PUBLIC "-//W3C//DTD SVG 1.1//EN" "http://www.w3.org/Graphics/SVG/1.1/DTD/svg11.dtd"><svg t="1730118208646" class="icon" viewBox="0 0 1024 1024" version="1.1" xmlns="http://www.w3.org/2000/svg" p-id="6027" xmlns:xlink="http://www.w3.org/1999/xlink" width="128" height="128"><path d="M2.544 512.604a508.82 508.82 0 1 0 1017.64 0 508.82 508.82 0 1 0-1017.64 0z" fill="#F8E71C" p-id="6028"></path><path d="M155.921 512.604a355.442 355.442 0 1 0 710.885 0 355.442 355.442 0 1 0-710.885 0z" fill="#2283F6" p-id="6029"></path><path d="M724.419 595.39a18.21 18.21 0 1 0 36.42 0 18.21 18.21 0 1 0-36.42 0z" fill="#FFFFFF" p-id="6030"></path><path d="M274.998 839.68c-21.25 21.25-135.416 58.47-135.416 58.47s37.214-114.167 58.463-135.416a54.412 54.412 0 1 1 76.953 76.946z" fill="#FE3D50" p-id="6031"></path><path d="M272.467 801.073c-9.89 9.897-78.708 42.894-78.708 42.894s33.003-68.818 42.893-78.708a25.327 25.327 0 0 1 35.815 35.82z" fill="#F8E71C" p-id="6032"></path><path d="M321.345 810.95c-10.844 10.839-36.304-6.041-62.413-32.15-26.115-26.115-42.995-51.582-32.151-62.42 10.838-10.838 58.788-16.447 84.903 9.668 26.109 26.109 20.505 74.059 9.661 84.903z" fill="#534741" p-id="6033"></path><path d="M168.26 704.016c-16.053-15.316 40.134-115.381 65.638-107.92 25.505 7.46 69.505 37.245 51.614 46.798-17.898 9.553-101.192 76.425-117.252 61.122z m165.462 165.449c15.31 16.053 115.375-40.133 107.908-65.638-7.46-25.504-37.245-69.505-46.798-51.613-9.547 17.898-76.425 101.191-61.116 117.251z" fill="#FE3D50" p-id="6034"></path><path d="M593.456 272.505C513.686 319.583 428.19 385.38 360.925 452.64c-151.87 151.876-135.27 235.634-73.372 297.532 61.904 61.898 145.663 78.505 297.533-73.372 67.266-67.266 133.056-152.76 180.14-232.53L593.457 272.51z" fill="#FFFFFF" p-id="6035"></path><path d="M669.168 368.557c30.3 30.3 62.871 55.614 96.059 75.72 59.214-100.34 88.808-191.61 54.316-226.095-34.478-34.485-125.748-4.897-226.087 54.316 20.098 33.188 45.412 65.765 75.712 96.06z" fill="#FE3D50" p-id="6036"></path><path d="M602.634 611.188c-147.278 147.793-246.969 112.907-306.832 52.51-16.244-16.384-29.212-34.364-36.622-54.793-18 58.196-4.465 100.434 30.262 135.473 59.863 60.39 147.227 76.59 294.11-71.597 65.053-65.632 128.688-149.046 174.22-226.877C810.5 355.76 845.259 266.8 823.41 228.002c10.813 74.689-79.852 241.766-220.776 383.186z" fill="#2283F6" p-id="6037"></path><path d="M424.655 530.445a82.632 82.632 0 1 0 165.264 0 82.632 82.632 0 1 0-165.264 0z" fill="#2283F6" p-id="6038"></path><path d="M444.391 530.445a62.896 62.896 0 1 0 125.793 0 62.896 62.896 0 1 0-125.793 0z" fill="#534741" p-id="6039"></path><path d="M551.758 549.475c-24.563 24.563-64.385 24.563-88.948 0a62.56 62.56 0 0 1-17.097-31.75 62.814 62.814 0 0 0 17.097 57.19c24.563 24.564 64.385 24.564 88.948 0a62.807 62.807 0 0 0 17.096-57.19 62.553 62.553 0 0 1-17.096 31.75z" fill="#534741" p-id="6040"></path><path d="M480.288 491.323a27 14.896 0 1 0 53.998 0 27 14.896 0 1 0-53.998 0z" fill="#FFFFFF" p-id="6041"></path><path d="M569.675 459.33a8.72 8.72 0 1 0 17.44 0 8.72 8.72 0 1 0-17.44 0zM472.535 433.305a8.72 8.72 0 1 0 17.44 0 8.72 8.72 0 1 0-17.44 0zM401.42 504.412a8.72 8.72 0 1 0 17.44 0 8.72 8.72 0 1 0-17.44 0zM427.453 601.559a8.72 8.72 0 1 0 17.44 0 8.72 8.72 0 1 0-17.44 0zM524.593 627.585a8.72 8.72 0 1 0 17.44 0 8.72 8.72 0 1 0-17.44 0zM595.707 556.47a8.72 8.72 0 1 0 17.44 0 8.72 8.72 0 1 0-17.44 0z" fill="#2283F6" p-id="6042"></path><path d="M332.908 741.56c-23.215 23.215-79.732 58.311-87.39 50.653-7.664-7.664 27.432-64.174 50.653-87.39 23.215-23.22 43.752-22.343 51.41-14.679 7.664 7.658 8.548 28.195-14.673 51.416z" fill="#FE3D50" p-id="6043"></path><path d="M782.533 218.22c7.041 11.258-54.971 36.489-99.283 64.2-44.306 27.712-78.664 50.832-88.083 41.47-23.393-23.273-0.802-29.086 43.504-56.798 44.312-27.711 136.821-60.13 143.862-48.872zM344.255 184.422a23.406 23.406 0 1 0 46.811 0 23.406 23.406 0 1 0-46.811 0zM498.294 223.633a13.07 13.07 0 1 0 26.14 0 13.07 13.07 0 1 0-26.14 0zM214.48 394.106a13.07 13.07 0 1 0 26.14 0 13.07 13.07 0 1 0-26.14 0z" fill="#FFFFFF" p-id="6044"></path></svg>